<svg width="568" height="47" viewBox="0 0 568 47" fill="none" xmlns="http://www.w3.org/2000/svg">
<path fill-rule="evenodd" clip-rule="evenodd" d="M548 1.04444H20C9.50659 1.04444 1 9.9291 1 20.8889V26.1111C1 37.0709 9.50659 45.9556 20 45.9556H548C558.493 45.9556 567 37.0709 567 26.1111V20.8889C567 9.9291 558.493 1.04444 548 1.04444ZM20 0C8.95431 0 0 9.35227 0 20.8889V26.1111C0 37.6477 8.9543 47 20 47H548C559.046 47 568 37.6477 568 26.1111V20.8889C568 9.35227 559.046 0 548 0H20Z" fill="#D9D9D9" fill-opacity="0.59"/>
</svg>
